# xmcd
#
# Track frame offsets:
#	150
#	39571
#	89818
#	107811
#	113121
#	138161
#	176286
#
# Disc length: 2776 seconds
#
# Revision: 2
# Processed by: cddbd v1.5.1PL2 Copyright (c) Steve Scherf et al.
# Submitted via: EasyCDDAExtractor 8.0.2.1
#
DISCID=580ad607
DTITLE=Various Artist - The Spring and Airbrake Belfast 26-10-05 Disc 2
DYEAR=2005
DGENRE=Hard Rock
TTITLE0=Track01 - Gates Of Babylon
TTITLE1=Track02 - Heaven and Hell
TTITLE2=Track03 - Man On The Silver Mountain
TTITLE3=Track04 - Catch The Rainbow
TTITLE4=Track05 - Long Live Rock and Roll
TTITLE5=Track06 - The Last In Line
TTITLE6=Track07 - We Rock 
EXTD=
EXTT0=
EXTT1=
EXTT2=
EXTT3=
EXTT4=
EXTT5=
EXTT6=
PLAYORDER=
